<svg width="122" height="37" viewBox="0 0 122 37" fill="none" xmlns="http://www.w3.org/2000/svg">
<rect width="122" height="37" rx="5" fill="#6B46C1"/>
<path d="M18.3239 15.7102C18.2784 15.2519 18.0833 14.8958 17.7386 14.642C17.3939 14.3883 16.9261 14.2614 16.3352 14.2614C15.9337 14.2614 15.5947 14.3182 15.3182 14.4318C15.0417 14.5417 14.8295 14.6951 14.6818 14.892C14.5379 15.089 14.4659 15.3125 14.4659 15.5625C14.4583 15.7708 14.5019 15.9527 14.5966 16.108C14.6951 16.2633 14.8295 16.3977 15 16.5114C15.1705 16.6212 15.3674 16.7178 15.5909 16.8011C15.8144 16.8807 16.053 16.9489 16.3068 17.0057L17.3523 17.2557C17.8598 17.3693 18.3258 17.5208 18.75 17.7102C19.1742 17.8996 19.5417 18.1326 19.8523 18.4091C20.1629 18.6856 20.4034 19.0114 20.5739 19.3864C20.7481 19.7614 20.8371 20.1913 20.8409 20.6761C20.8371 21.3883 20.6553 22.0057 20.2955 22.5284C19.9394 23.0473 19.4242 23.4508 18.75 23.7386C18.0795 24.0227 17.2708 24.1648 16.3239 24.1648C15.3845 24.1648 14.5663 24.0208 13.8693 23.733C13.1761 23.4451 12.6345 23.0189 12.2443 22.4545C11.858 21.8864 11.6553 21.1837 11.6364 20.3466H14.017C14.0436 20.7367 14.1553 21.0625 14.3523 21.3239C14.553 21.5814 14.8201 21.7765 15.1534 21.9091C15.4905 22.0379 15.8712 22.1023 16.2955 22.1023C16.7121 22.1023 17.0739 22.0417 17.3807 21.9205C17.6913 21.7992 17.9318 21.6307 18.1023 21.4148C18.2727 21.1989 18.358 20.9508 18.358 20.6705C18.358 20.4091 18.2803 20.1894 18.125 20.0114C17.9735 19.8333 17.75 19.6818 17.4545 19.5568C17.1629 19.4318 16.8049 19.3182 16.3807 19.2159L15.1136 18.8977C14.1326 18.6591 13.358 18.286 12.7898 17.7784C12.2216 17.2708 11.9394 16.5871 11.9432 15.7273C11.9394 15.0227 12.1269 14.4072 12.5057 13.8807C12.8883 13.3542 13.4129 12.9432 14.0795 12.6477C14.7462 12.3523 15.5038 12.2045 16.3523 12.2045C17.2159 12.2045 17.9697 12.3523 18.6136 12.6477C19.2614 12.9432 19.7652 13.3542 20.125 13.8807C20.4848 14.4072 20.6705 15.017 20.6818 15.7102H18.3239ZM26.4276 24.1705C25.5298 24.1705 24.7571 23.9886 24.1094 23.625C23.4654 23.2576 22.9692 22.7386 22.6207 22.0682C22.2723 21.3939 22.098 20.5966 22.098 19.6761C22.098 18.7784 22.2723 17.9905 22.6207 17.3125C22.9692 16.6345 23.4598 16.1061 24.0923 15.7273C24.7287 15.3485 25.4749 15.1591 26.331 15.1591C26.9067 15.1591 27.4427 15.2519 27.9389 15.4375C28.4389 15.6193 28.8745 15.8939 29.2457 16.2614C29.6207 16.6288 29.9124 17.0909 30.1207 17.6477C30.3291 18.2008 30.4332 18.8485 30.4332 19.5909V20.2557H23.0639V18.7557H28.1548C28.1548 18.4072 28.0791 18.0985 27.9276 17.8295C27.776 17.5606 27.5658 17.3504 27.2969 17.1989C27.0317 17.0436 26.723 16.9659 26.3707 16.9659C26.0033 16.9659 25.6776 17.0511 25.3935 17.2216C25.1132 17.3883 24.8935 17.6136 24.7344 17.8977C24.5753 18.178 24.4938 18.4905 24.4901 18.8352V20.2614C24.4901 20.6932 24.5696 21.0663 24.7287 21.3807C24.8916 21.6951 25.1207 21.9375 25.4162 22.108C25.7116 22.2784 26.062 22.3636 26.4673 22.3636C26.7363 22.3636 26.9825 22.3258 27.206 22.25C27.4295 22.1742 27.6207 22.0606 27.7798 21.9091C27.9389 21.7576 28.0601 21.572 28.1435 21.3523L30.3821 21.5C30.2685 22.0379 30.0355 22.5076 29.6832 22.9091C29.3348 23.3068 28.884 23.6174 28.331 23.8409C27.7817 24.0606 27.1473 24.1705 26.4276 24.1705ZM35.9901 24.1705C35.0923 24.1705 34.3196 23.9886 33.6719 23.625C33.0279 23.2576 32.5317 22.7386 32.1832 22.0682C31.8348 21.3939 31.6605 20.5966 31.6605 19.6761C31.6605 18.7784 31.8348 17.9905 32.1832 17.3125C32.5317 16.6345 33.0223 16.1061 33.6548 15.7273C34.2912 15.3485 35.0374 15.1591 35.8935 15.1591C36.4692 15.1591 37.0052 15.2519 37.5014 15.4375C38.0014 15.6193 38.437 15.8939 38.8082 16.2614C39.1832 16.6288 39.4749 17.0909 39.6832 17.6477C39.8916 18.2008 39.9957 18.8485 39.9957 19.5909V20.2557H32.6264V18.7557H37.7173C37.7173 18.4072 37.6416 18.0985 37.4901 17.8295C37.3385 17.5606 37.1283 17.3504 36.8594 17.1989C36.5942 17.0436 36.2855 16.9659 35.9332 16.9659C35.5658 16.9659 35.2401 17.0511 34.956 17.2216C34.6757 17.3883 34.456 17.6136 34.2969 17.8977C34.1378 18.178 34.0563 18.4905 34.0526 18.8352V20.2614C34.0526 20.6932 34.1321 21.0663 34.2912 21.3807C34.4541 21.6951 34.6832 21.9375 34.9787 22.108C35.2741 22.2784 35.6245 22.3636 36.0298 22.3636C36.2988 22.3636 36.545 22.3258 36.7685 22.25C36.992 22.1742 37.1832 22.0606 37.3423 21.9091C37.5014 21.7576 37.6226 21.572 37.706 21.3523L39.9446 21.5C39.831 22.0379 39.598 22.5076 39.2457 22.9091C38.8973 23.3068 38.4465 23.6174 37.8935 23.8409C37.3442 24.0606 36.7098 24.1705 35.9901 24.1705ZM45.2784 24V15.2727H47.5852V16.8125H47.6875C47.8693 16.3011 48.1723 15.8977 48.5966 15.6023C49.0208 15.3068 49.5284 15.1591 50.1193 15.1591C50.7178 15.1591 51.2273 15.3087 51.6477 15.608C52.0682 15.9034 52.3485 16.3049 52.4886 16.8125H52.5795C52.7576 16.3125 53.0795 15.9129 53.5455 15.6136C54.0152 15.3106 54.5701 15.1591 55.2102 15.1591C56.0246 15.1591 56.6856 15.4186 57.1932 15.9375C57.7045 16.4527 57.9602 17.1837 57.9602 18.1307V24H55.5455V18.608C55.5455 18.1231 55.4167 17.7595 55.1591 17.517C54.9015 17.2746 54.5795 17.1534 54.1932 17.1534C53.7538 17.1534 53.411 17.2936 53.1648 17.5739C52.9186 17.8504 52.7955 18.2159 52.7955 18.6705V24H50.4489V18.5568C50.4489 18.1288 50.3258 17.7879 50.0795 17.5341C49.8371 17.2803 49.517 17.1534 49.1193 17.1534C48.8504 17.1534 48.608 17.2216 48.392 17.358C48.1799 17.4905 48.0114 17.678 47.8864 17.9205C47.7614 18.1591 47.6989 18.4394 47.6989 18.7614V24H45.2784ZM63.8153 24.1705C62.9328 24.1705 62.1695 23.983 61.5256 23.608C60.8854 23.2292 60.3911 22.7027 60.0426 22.0284C59.6941 21.3504 59.5199 20.5644 59.5199 19.6705C59.5199 18.7689 59.6941 17.9811 60.0426 17.3068C60.3911 16.6288 60.8854 16.1023 61.5256 15.7273C62.1695 15.3485 62.9328 15.1591 63.8153 15.1591C64.6979 15.1591 65.4593 15.3485 66.0994 15.7273C66.7434 16.1023 67.2396 16.6288 67.5881 17.3068C67.9366 17.9811 68.1108 18.7689 68.1108 19.6705C68.1108 20.5644 67.9366 21.3504 67.5881 22.0284C67.2396 22.7027 66.7434 23.2292 66.0994 23.608C65.4593 23.983 64.6979 24.1705 63.8153 24.1705ZM63.8267 22.2955C64.2282 22.2955 64.5634 22.1818 64.8324 21.9545C65.1013 21.7235 65.304 21.4091 65.4403 21.0114C65.5805 20.6136 65.6506 20.161 65.6506 19.6534C65.6506 19.1458 65.5805 18.6932 65.4403 18.2955C65.304 17.8977 65.1013 17.5833 64.8324 17.3523C64.5634 17.1212 64.2282 17.0057 63.8267 17.0057C63.4214 17.0057 63.0805 17.1212 62.804 17.3523C62.5313 17.5833 62.3248 17.8977 62.1847 18.2955C62.0483 18.6932 61.9801 19.1458 61.9801 19.6534C61.9801 20.161 62.0483 20.6136 62.1847 21.0114C62.3248 21.4091 62.5313 21.7235 62.804 21.9545C63.0805 22.1818 63.4214 22.2955 63.8267 22.2955ZM69.6847 24V15.2727H72.0312V16.7955H72.1222C72.2813 16.2538 72.5483 15.8447 72.9233 15.5682C73.2983 15.2879 73.7301 15.1477 74.2188 15.1477C74.34 15.1477 74.4706 15.1553 74.6108 15.1705C74.7509 15.1856 74.8741 15.2064 74.9801 15.233V17.3807C74.8665 17.3466 74.7093 17.3163 74.5085 17.2898C74.3078 17.2633 74.1241 17.25 73.9574 17.25C73.6013 17.25 73.2831 17.3277 73.0028 17.483C72.7263 17.6345 72.5066 17.8466 72.3438 18.1193C72.1847 18.392 72.1051 18.7064 72.1051 19.0625V24H69.6847ZM79.8026 24.1705C78.9048 24.1705 78.1321 23.9886 77.4844 23.625C76.8404 23.2576 76.3442 22.7386 75.9957 22.0682C75.6473 21.3939 75.473 20.5966 75.473 19.6761C75.473 18.7784 75.6473 17.9905 75.9957 17.3125C76.3442 16.6345 76.8348 16.1061 77.4673 15.7273C78.1037 15.3485 78.8499 15.1591 79.706 15.1591C80.2817 15.1591 80.8177 15.2519 81.3139 15.4375C81.8139 15.6193 82.2495 15.8939 82.6207 16.2614C82.9957 16.6288 83.2874 17.0909 83.4957 17.6477C83.7041 18.2008 83.8082 18.8485 83.8082 19.5909V20.2557H76.4389V18.7557H81.5298C81.5298 18.4072 81.4541 18.0985 81.3026 17.8295C81.151 17.5606 80.9408 17.3504 80.6719 17.1989C80.4067 17.0436 80.098 16.9659 79.7457 16.9659C79.3783 16.9659 79.0526 17.0511 78.7685 17.2216C78.4882 17.3883 78.2685 17.6136 78.1094 17.8977C77.9503 18.178 77.8688 18.4905 77.8651 18.8352V20.2614C77.8651 20.6932 77.9446 21.0663 78.1037 21.3807C78.2666 21.6951 78.4957 21.9375 78.7912 22.108C79.0866 22.2784 79.437 22.3636 79.8423 22.3636C80.1113 22.3636 80.3575 22.3258 80.581 22.25C80.8045 22.1742 80.9957 22.0606 81.1548 21.9091C81.3139 21.7576 81.4351 21.572 81.5185 21.3523L83.7571 21.5C83.6435 22.0379 83.4105 22.5076 83.0582 22.9091C82.7098 23.3068 82.259 23.6174 81.706 23.8409C81.1567 24.0606 80.5223 24.1705 79.8026 24.1705Z" fill="white"/>
<g clip-path="url(#clip0_13_236)">
<path d="M102 10.6665C106.6 10.6665 110.333 14.3998 110.333 18.9998C110.333 23.5998 106.6 27.3332 102 27.3332C97.4 27.3332 93.6667 23.5998 93.6667 18.9998C93.6667 14.3998 97.4 10.6665 102 10.6665ZM102.833 18.9998V15.6665H101.167V18.9998H98.6667L102 22.3332L105.333 18.9998H102.833Z" fill="white"/>
</g>
<defs>
<clipPath id="clip0_13_236">
<rect width="20" height="20" fill="white" transform="translate(92 9)"/>
</clipPath>
</defs>
</svg>
